# xmcd
#
# Track frame offsets: 
#        150
#        17332
#        37713
#        55378
#        69969
#        93288
#        110452
#        128938
#        141273
#        152839
#
# Disc length: 2449 seconds
#
# Revision: 1
# Processed by: cddbd v1.5.2PL0 Copyright (c) Steve Scherf et al.
# Submitted via: ExactAudioCopyFreeDBPlugin 1.0
#
DISCID=79098f0a
DTITLE=Howlin' Wolf - The Howlin' Wolf Album [Cadet]
DYEAR=2011
DGENRE=Blues
TTITLE0=Spoonful
TTITLE1=Tail Dragger
TTITLE2=Smokestack Lightning
TTITLE3=Moaning at Midnight
TTITLE4=Built for Comfort
TTITLE5=Little Red Rooster
TTITLE6=Evil
TTITLE7=Down in the Bottom
TTITLE8=Three Hundred Pounds of Joy
TTITLE9=Back Door Man
EXTD=
EXTT0=
EXTT1=
EXTT2=
EXTT3=
EXTT4=
EXTT5=
EXTT6=
EXTT7=
EXTT8=
EXTT9=
PLAYORDER=
